<svg xmlns="http://www.w3.org/2000/svg" width="101" height="101" viewBox="0 0 101 101">
    <defs>
        <filter id="qx6c07a1wa">
            <feColorMatrix in="SourceGraphic" values="0 0 0 0 0.847000 0 0 0 0 0.847000 0 0 0 0 0.847000 0 0 0 1.000000 0"/>
        </filter>
    </defs>
    <g fill="none" fill-rule="evenodd">
        <g>
            <g>
                <g>
                    <path fill="#FFF" fill-opacity="0" d="M0 0H101V101H0z" transform="translate(-157 -249) translate(15 172) translate(142 77)"/>
                    <g filter="url(#qx6c07a1wa)" transform="translate(-157 -249) translate(15 172) translate(142 77)">
                        <g fill="#202020">
                            <path d="M67.438 39.836v-1.779-27.12c0-5.902-4.611-10.704-10.28-10.704H11.932C6.263.233 1.652 5.035 1.652 10.937v28.899c0 5.902 4.611 10.704 10.28 10.704h45.227c5.668 0 10.279-4.802 10.279-10.704 0-1.478-3.865-1.386-3.865 0 0 2.951-3.58 6.707-6.414 6.707H11.93c-2.834 0-6.29-3.756-6.29-6.707V21.398h7.889c1.06 3.114 3.917 4.743 7.267 4.743.993 0 1.968-.241 2.895-.63-.944 2.122-2.359 5.8-4.48 7.32-1.17.838-1.465 2.504-.66 3.721.498.755 1.301 1.16 2.119 1.16.502 0 1.01-.153 1.454-.472 2.967-2.126 4.919-10.167 6.188-12.995 1.281 2.827 3.222 10.87 6.189 12.995.445.319.952.472 1.454.472.817 0 1.621-.405 2.12-1.16.804-1.217.508-2.883-.661-3.72-2.11-1.513-3.53-5.195-4.485-7.323.928.39 1.904.632 2.9.632 3.35 0 6.206-1.629 7.267-4.743h20.476V39.98M20.797 22.325c-1.417 0-2.57-1.2-2.57-2.676 0-1.475 1.153-2.675 2.57-2.675 1.182 0 2.89 1.297 4.247 2.672m10.786 2.68c-1.183 0-2.89-1.298-4.248-2.673 1.317-1.33 3.04-2.68 4.248-2.68 1.417 0 2.57 1.201 2.57 2.676m4.697-1.823c-1.06-3.114-3.917-5.631-7.267-5.631-2.918 0-5.677 1.506-7.517 3.303-1.84-1.797-4.598-3.303-7.516-3.303-3.35 0-6.206 2.517-7.267 5.631H5.64v-6.89c0-2.95 3.457-6.703 6.291-6.703H57.16c2.834 0 6.414 3.753 6.414 6.704v6.89" transform="translate(17.414 27.862)"/>
                            <path d="M63.568 35.061L67.438 35.061 67.438 40.716 63.568 42.8z" transform="translate(17.414 27.862)"/>
                        </g>
                    </g>
                </g>
            </g>
        </g>
    </g>
</svg>
